<?xml version="1.0" encoding="utf-8"?>
<!-- Generator: Adobe Illustrator 18.0.0, SVG Export Plug-In . SVG Version: 6.00 Build 0)  -->
<!DOCTYPE svg PUBLIC "-//W3C//DTD SVG 1.1//EN" "http://www.w3.org/Graphics/SVG/1.1/DTD/svg11.dtd">
<svg version="1.1" id="Capa_1" xmlns:ev="http://www.w3.org/2001/xml-events"
	 xmlns="http://www.w3.org/2000/svg" xmlns:xlink="http://www.w3.org/1999/xlink" x="0px" y="0px" viewBox="0 0 612 792"
	 enable-background="new 0 0 612 792" xml:space="preserve">
<path fill="#FFFFFF" d="M602.4,396c0,163.7-132.7,296.4-296.4,296.4S9.6,559.7,9.6,396S142.3,99.6,306,99.6S602.4,232.3,602.4,396z
	 M86.4,353.2c-5,2.6-9.8,6.6-14.6,12v-14.1H45.4v100.3h26.4v-66.7c4.1-5.5,7.9-9.4,11.5-11.9c3.5-2.5,7.6-3.7,11.9-3.7
	c5.3,0,9.6,1.9,12.7,5.8c3.2,3.9,4.7,9.3,4.7,16.2v60.2h26.3v-66.7c7.5-10.4,15.2-15.6,23.3-15.6c5.6,0,9.9,2,12.9,6
	c3,4,4.5,9.5,4.5,16.4v59.8H206v-64.3c0-11.6-3.3-20.8-9.8-27.6c-6.5-6.9-15.1-10.3-25.6-10.3c-6.7,0-12.9,1.6-18.6,4.8
	c-5.6,3.2-11.3,8.2-16.9,15.2c-2.7-6.1-6.6-10.9-12-14.5c-5.4-3.6-11.9-5.5-19.6-5.5C97.1,349.2,91.3,350.6,86.4,353.2z
	 M229.3,301.4v143.4c14.4,5.6,29.4,8.5,44.7,8.5c17,0,30.5-4.8,40.3-14.2c9.8-9.5,14.7-22.5,14.7-38.9c0-9.7-2-18.5-5.9-26.3
	c-4-7.8-9.6-14-16.7-18.3s-15.2-6.5-24-6.5c-9.8,0-18.7,2.8-26.5,8.4v-56.1L229.3,301.4L229.3,301.4z M255.7,377.4
	c3.5-2.9,6.8-5,9.8-6.3c3.1-1.3,6.4-2,10.1-2c7.8,0,14.2,2.8,19,8.4c4.8,5.6,7.2,13.2,7.2,22.6c0,10.4-2.4,18.6-7.2,24.6
	c-4.8,5.9-11.2,8.9-19.3,8.9c-7.6,0-14.2-1-19.8-2.9L255.7,377.4L255.7,377.4L255.7,377.4z M356.5,363.7
	c-9.3,9.7-13.9,22.1-13.9,37.4c0,15.8,5,28.5,15,38.1s22.9,14.2,38.7,14.2c16.7,0,31-4.1,42.7-12.4v-19.7
	c-6.2,4.4-12.2,7.7-18.1,9.9c-5.8,2.2-11.9,3.3-18.2,3.3c-9.8,0-17.5-2.4-23.1-7.3c-5.6-4.9-9-11.8-10-20.7h71v-4
	c0-16.6-4.3-29.7-12.9-39.2s-20.3-14.2-35-14.2C377.8,349.2,365.8,354,356.5,363.7z M370.1,390.5c1.1-7.6,3.6-13.5,7.6-17.4
	s9.4-5.9,16.1-5.9c6.5,0,11.7,2.1,15.4,6.2c3.7,4.1,5.9,9.8,6.7,17.1L370.1,390.5L370.1,390.5z M504.4,349.2
	c-9.1,0-17.6,2.2-25.4,6.6c-7.8,4.4-14,10.5-18.5,18.2c-4.5,7.7-6.7,16.4-6.7,25.8c0,16,4.8,28.6,14.4,37.8
	c9.7,9.3,22.5,13.9,38.5,13.9h46.4v-150h-26.3v52C519,350.6,511.5,349.2,504.4,349.2z M480.9,399c0-9,2.7-16.2,7.9-21.7
	c5.3-5.5,12.3-8.2,21.1-8.2c5.8,0,11.6,1.4,16.9,4.2v58.1H513C491.6,431.3,480.9,420.5,480.9,399z"/>
</svg>
