<?xml version="1.0" encoding="utf-8"?>
<!-- Generator: Adobe Illustrator 18.1.1, SVG Export Plug-In . SVG Version: 6.00 Build 0)  -->
<!DOCTYPE svg PUBLIC "-//W3C//DTD SVG 1.1//EN" "http://www.w3.org/Graphics/SVG/1.1/DTD/svg11.dtd">
<svg version="1.1" id="Layer_1" xmlns="http://www.w3.org/2000/svg" xmlns:xlink="http://www.w3.org/1999/xlink" x="0px" y="0px"
	 viewBox="0 0 600 120" enable-background="new 0 0 600 120" xml:space="preserve">
<g>
	<path fill="#CACACA" d="M48.5,86.9h10c3.5,0,4.7-0.1,6.9-0.7v12.1c-2.3-0.4-3.7-0.5-7-0.5H28.1c-3.3,0-4.7,0.1-7.2,0.5V86.2
		c2.3,0.6,3.5,0.7,6.9,0.7h9.8V40.1H31c-3.4,0-4.8,0.1-6.6,0.5l0.1-12.1c2.2,0.6,3.6,0.7,7,0.7H55c3.4,0,4.7-0.1,7-0.7v12.1
		c-1.8-0.4-3.2-0.5-6.6-0.5h-6.9V86.9z"/>
	<path fill="#CACACA" d="M97.8,92.6h8.2c2.8,0,3.9-0.1,5.7-0.6v10.2c-1.9-0.3-3.1-0.4-5.8-0.4H80.7c-2.7,0-3.9,0.1-5.9,0.4V92
		c1.9,0.5,2.9,0.6,5.7,0.6h7.7V53.5h-5c-2.9,0-3.9,0.1-5.5,0.4V43.8c1.9,0.5,3,0.6,5.8,0.6H103c2.9,0,4-0.1,5.9-0.6v10.1
		c-1.6-0.3-2.6-0.4-5.5-0.4h-5.6V92.6z"/>
	<path fill="#CACACA" d="M147.8,92.6h8.2c2.8,0,3.9-0.1,5.7-0.6v10.2c-1.9-0.3-3.1-0.4-5.8-0.4h-25.2c-2.7,0-3.9,0.1-5.9,0.4V92
		c1.9,0.5,2.9,0.6,5.7,0.6h7.7V53.5h-5c-2.9,0-3.9,0.1-5.5,0.4V43.8c1.9,0.5,3,0.6,5.8,0.6H153c2.9,0,4-0.1,5.9-0.6v10.1
		c-1.6-0.3-2.6-0.4-5.5-0.4h-5.6V92.6z"/>
	<path fill="#CACACA" d="M197.8,92.6h8.2c2.8,0,3.9-0.1,5.7-0.6v10.2c-1.9-0.3-3.1-0.4-5.8-0.4h-25.2c-2.7,0-3.9,0.1-5.9,0.4V92
		c1.9,0.5,2.9,0.6,5.7,0.6h7.7V53.5h-5c-2.9,0-3.9,0.1-5.5,0.4V43.8c1.9,0.5,3,0.6,5.8,0.6H203c2.9,0,4-0.1,5.9-0.6v10.1
		c-1.6-0.3-2.6-0.4-5.5-0.4h-5.6V92.6z"/>
	<path fill="#CACACA" d="M247.8,92.6h8.2c2.8,0,3.9-0.1,5.7-0.6v10.2c-1.9-0.3-3.1-0.4-5.8-0.4h-25.2c-2.7,0-3.9,0.1-5.9,0.4V92
		c1.9,0.5,2.9,0.6,5.7,0.6h7.7V53.5h-5c-2.9,0-3.9,0.1-5.5,0.4V43.8c1.9,0.5,3,0.6,5.8,0.6H253c2.9,0,4-0.1,5.9-0.6v10.1
		c-1.6-0.3-2.6-0.4-5.5-0.4h-5.6V92.6z"/>
	<path fill="#CACACA" d="M278.2,27c6.6,7.3,11,13.4,15.3,20.9l-8.7,9.1c-4.5-9.9-8.1-15.4-14.3-22.2L278.2,27z M271.9,88.7
		c4.3-0.8,10.9-5,16.3-10.2s10.1-13,13.9-23.2c2.7-7.3,4-12.7,5.2-21.5c3.1,4.4,4.6,5.8,9.2,8.9c-4,18.7-9.7,31.7-18.1,41.8
		c-3.7,4.4-8.1,8.1-14.1,11.8c-2.2,1.4-4.5,2.8-5.5,3.2c-1.3,0.7-1.3,0.7-2.2,1.4c-0.9,0.6-0.9,0.6-1.9,1.1L271.9,88.7z"/>
	<path fill="#CACACA" d="M318.5,68.2c2.4-3,6.3-13,10.7-27.1c2.3-7.6,4.4-10,8.7-10c2.3,0,4.2,1,5.7,2.8c1,1.2,2.1,3.5,3.5,7.3
		c2.9,8.1,11.2,26.1,15.7,34.6c2.2,4,3.4,6,4.7,7.7l-5.2,14.7c-4.8-8-7-12.2-10.9-20.5c-6.3-13-10-21.9-13.3-31.6
		c-2.4,9.5-4.8,16.6-7.7,23.7c-1.6,3.9-1.6,3.9-5.6,11.7L318.5,68.2z"/>
	<path fill="#CACACA" d="M373.7,16.6c2.4,4.1,4.1,7.8,5.9,13.3l-5.3,3.6c-1.7-5.2-3.8-10.1-5.9-13.7L373.7,16.6z M381,12.3
		c2.7,4.7,4,7.5,6,13l-5.3,3.5c-1.4-4.7-3.7-9.8-5.9-13.3L381,12.3z"/>
	<path fill="#CACACA" d="M420.7,42.5c2.2,8.2,3.5,14.5,5.3,25.8l-8.6,3c-0.9-8.7-3.1-19.8-5.2-26.4L420.7,42.5z M453.7,42.9
		c-0.5,2.2-0.5,2.2-1.2,9.2c-1.8,16.3-5.5,28.6-11.3,38.3c-4.2,7-7.7,10.6-15.4,15.8c-1.3-4-2.2-5.7-5-9.1
		c6.5-4.4,10.4-8.4,13.8-14.2c4.6-7.9,7.7-20.2,8.5-34.1l0.2-4c0.1-1.3,0.1-2,0.1-2.9c0-0.3-0.1-1.1-0.2-1.9L453.7,42.9z
		 M433.2,39.2c2.3,8,3.3,12.7,5.5,25.8l-8.4,2.5c-0.8-7.5-3.2-18.8-5.4-26L433.2,39.2z"/>
	<path fill="#CACACA" d="M469.5,104.4c0.2-3,0.3-5.5,0.3-11.2v-64c0-5.1-0.1-7.6-0.3-10.2H481c-0.3,2.7-0.4,4.1-0.4,10.2v17.9
		c10.3,6.7,18.1,13.4,25,21.3l-5.4,11.4c-6.9-8.2-10.5-11.8-18.4-18.4c-0.6-0.6-0.9-0.9-1.4-1.4c0.2,1.4,0.2,2,0.2,2.9v30.5
		c0,6.3,0.1,8.6,0.4,11H469.5z"/>
	<path fill="#CACACA" d="M513.7,16.6c2.4,4.1,4.1,7.8,5.9,13.3l-5.3,3.6c-1.7-5.2-3.8-10.1-5.9-13.7L513.7,16.6z M521,12.3
		c2.7,4.7,4,7.5,6,13l-5.3,3.5c-1.4-4.7-3.7-9.8-5.9-13.3L521,12.3z"/>
	<path fill="#CACACA" d="M559.2,79.3c0.1-2.1,0.2-3.1,0.2-4.3c0-1.1,0-1.1-0.3-7.2l-1.4-34c-0.2-4.4-0.5-9.4-0.9-12.2h16.4
		c-0.3,2.7-0.7,7.9-0.9,12.2l-1.4,34c-0.2,5.9-0.2,5.9-0.2,7.3c0,1.2,0,2.2,0.2,4.2H559.2z M557.8,101.2V87.5h14.5v13.7H557.8z"/>
</g>
</svg>
