<?xml version="1.0" encoding="utf-8"?>
<!-- Generator: Adobe Illustrator 17.1.0, SVG Export Plug-In . SVG Version: 6.00 Build 0)  -->
<!DOCTYPE svg PUBLIC "-//W3C//DTD SVG 1.1//EN" "http://www.w3.org/Graphics/SVG/1.1/DTD/svg11.dtd">
<svg version="1.1" id="Capa_1" xmlns:ev="http://www.w3.org/2001/xml-events"
	 xmlns="http://www.w3.org/2000/svg" xmlns:xlink="http://www.w3.org/1999/xlink" x="0px" y="0px" viewBox="281 4337 83 86"
	 enable-background="new 281 4337 83 86" xml:space="preserve">
<path fill="#FFFFFF" d="M354.16,4361.72c2.31,5.83,4.16,26.05,4.84,52.28h-12.43c0.68-26.23,2.54-46.45,4.84-52.28
	c-1.25-0.53-2.13-1.77-2.13-3.22c0-1.93,1.57-3.5,3.5-3.5s3.5,1.57,3.5,3.5C356.29,4359.95,355.41,4361.19,354.16,4361.72z
	 M332.15,4414c-0.47-1.91-2.26-3.57-4.82-4.66c0.32-0.4,0.65-0.8,0.97-1.21c0.72,0.53,1.41,1.14,2.07,1.84
	c0.02-1.54,0.05-3.06,0.08-4.57c5.04-6.55,9.99-13.89,10.65-18.23c1.1-7.29-2.74-14.15-9.03-17.32c0.82-10.11,1.86-17.61,3.04-21.29
	c-1.09-0.59-1.83-1.73-1.83-3.06c0-1.93,1.57-3.5,3.5-3.5s3.5,1.57,3.5,3.5c0,1.28-0.69,2.38-1.71,3c2.98,7.9,6.15,33.78,6.65,65.5
	H332.15z M338.16,4387.27c-1.14,7.57-18.14,26.25-18.14,26.25s-10.77-22.61-9.63-30.18c1.14-7.57,8.28-12.83,15.95-11.74
	C334.01,4372.69,339.3,4379.71,338.16,4387.27z M330.32,4383.29c-0.36-3.13-3.23-5.35-6.4-4.98c-3.17,0.38-5.45,3.21-5.08,6.34
	c0.36,3.13,3.23,5.36,6.4,4.98C328.4,4389.26,330.68,4386.42,330.32,4383.29z M307.42,4382.4c-0.83,5.53,3.57,17.66,7.21,26.45
	c-3.28,1.03-5.65,2.91-6.21,5.15h-8.07c0.49-31.73,3.67-57.6,6.64-65.5c-1.02-0.61-1.71-1.72-1.71-3c0-1.93,1.57-3.5,3.5-3.5
	s3.5,1.57,3.5,3.5c0,1.33-0.74,2.46-1.83,3.06c1.25,3.91,2.36,12.11,3.19,23.18C310.4,4374.31,308.08,4378.03,307.42,4382.4z
	 M286.57,4414c0.68-26.23,2.54-46.45,4.84-52.28c-1.25-0.53-2.13-1.77-2.13-3.22c0-1.93,1.57-3.5,3.5-3.5s3.5,1.57,3.5,3.5
	c0,1.45-0.88,2.69-2.13,3.22c2.31,5.83,4.16,26.05,4.84,52.28H286.57z M315.82,4411.68c0.12,0.28,0.24,0.57,0.36,0.83
	c0.99,2.22,1.27,3.82,3.14,3.82c1.87,0,2.7-0.63,5.35-3.76c0.19-0.23,0.39-0.47,0.59-0.71c1.84,0.73,3.03,1.86,3.03,3.13
	c0,2.21-3.58,4-8,4s-8-1.79-8-4C312.29,4413.62,313.69,4412.4,315.82,4411.68z"/>
</svg>
